# xmcd
#
# Track frame offsets:
#	150
#	15008
#	32942
#	46442
#	61535
#	75957
#	95186
#	109204
#	128327
#	147374
#	165418
#	184004
#	201873
#	217196
#	235652
#	255990
#	269400
#	287564
#	304170
#	320598
#	336079
#
# Disc length: 4739 seconds
#
# Revision: 0
# Processed by: cddbd v1.5.2PL0 Copyright (c) Steve Scherf et al.
# Submitted via: EasyCDDAExtractor 15.3.0.1
#
DISCID=1e128115
DTITLE=Neoton Familia - Aranyalbum
DYEAR=1900
DGENRE=
TTITLE0=Ha szombat este táncol
TTITLE1=Hívlak
TTITLE2=A Disco királynő
TTITLE3=Szédült napraforgó
TTITLE4=Hegyirabló
TTITLE5=A Felügyelő
TTITLE6=Hosszu az a nap
TTITLE7=Apám szólt
TTITLE8=Caligula
TTITLE9=Don Quijote
TTITLE10=Na - na nagyfiú
TTITLE11=Ha varázslólány lehetnék
TTITLE12=Sandokan
TTITLE13=A Riporter
TTITLE14=Holnap hajnalig
TTITLE15=Jöjjön a nyár
TTITLE16=Nyár van
TTITLE17=A legkisebb fiú
TTITLE18=Gimi love
TTITLE19=Hazudós
TTITLE20=Elmentél
EXTD=
EXTT0=
EXTT1=
EXTT2=
EXTT3=
EXTT4=
EXTT5=
EXTT6=
EXTT7=
EXTT8=
EXTT9=
EXTT10=
EXTT11=
EXTT12=
EXTT13=
EXTT14=
EXTT15=
EXTT16=
EXTT17=
EXTT18=
EXTT19=
EXTT20=
PLAYORDER=
